<?xml version="1.0" standalone="no"?>
<!DOCTYPE svg PUBLIC "-//W3C//DTD SVG 20010904//EN"
 "http://www.w3.org/TR/2001/REC-SVG-20010904/DTD/svg10.dtd">
<svg version="1.0" xmlns="http://www.w3.org/2000/svg"
 width="640.000000pt" height="640.000000pt" viewBox="0 0 640.000000 640.000000"
 preserveAspectRatio="xMidYMid meet">
<metadata>
Created by potrace 1.11, written by Peter Selinger 2001-2013
</metadata>
<g transform="translate(0.000000,640.000000) scale(0.100000,-0.100000)"
fill="#000000" stroke="none">
<path d="M3183 6363 c-6 -16 -30 -73 -54 -128 -23 -55 -49 -116 -57 -135 -9
-19 -16 -38 -16 -42 -1 -3 -4 -10 -8 -14 -5 -4 -8 -16 -8 -26 0 -10 -4 -18
-10 -18 -5 0 -10 -6 -10 -14 0 -7 -17 -53 -39 -102 -21 -49 -62 -145 -91 -214
-29 -69 -61 -143 -70 -165 -10 -22 -82 -191 -160 -375 -78 -184 -154 -364
-170 -400 -15 -36 -78 -184 -140 -330 -62 -146 -120 -283 -130 -305 -9 -22
-39 -92 -65 -155 -26 -63 -52 -119 -56 -124 -5 -6 -9 -16 -9 -22 0 -7 -14 -43
-31 -81 -43 -95 -50 -111 -109 -253 -53 -127 -67 -161 -97 -227 -9 -21 -16
-44 -16 -50 0 -7 -3 -13 -6 -13 -3 0 -12 -15 -19 -33 -8 -17 -17 -41 -22 -52
-4 -11 -15 -36 -23 -55 -8 -19 -32 -75 -52 -124 -20 -49 -40 -96 -45 -105 -20
-38 -170 -400 -170 -410 0 -6 -5 -11 -11 -11 -5 0 -8 -4 -4 -9 3 -5 1 -12 -4
-15 -5 -3 -12 -17 -15 -31 -4 -14 -17 -49 -30 -78 -55 -121 -236 -553 -236
-563 0 -5 -5 -15 -12 -22 -6 -6 -13 -17 -14 -24 -1 -7 -13 -38 -27 -68 -37
-81 -308 -723 -310 -735 -1 -5 -5 -12 -8 -15 -3 -3 -16 -32 -29 -65 -12 -33
-31 -78 -41 -100 -56 -124 -99 -229 -99 -241 0 -8 -4 -14 -10 -14 -5 0 -10 -5
-10 -11 0 -11 -116 -293 -146 -353 -8 -16 -14 -31 -14 -33 0 -1 259 -3 575 -3
540 0 576 1 581 18 3 9 11 31 18 47 8 17 21 50 31 75 9 25 24 59 33 75 9 17
15 31 14 32 -1 2 7 23 18 49 11 25 20 47 20 50 0 3 110 275 129 319 5 11 33
79 61 150 29 72 60 148 70 170 23 54 135 329 136 335 0 3 8 23 18 45 10 22 31
74 48 115 16 41 36 91 45 110 48 110 63 150 56 150 -3 0 1 7 8 16 7 9 14 21
15 28 2 6 17 45 34 86 17 41 65 158 106 260 41 102 81 199 88 215 8 17 36 86
64 155 28 69 65 159 82 200 17 41 32 80 34 85 1 6 11 29 20 52 10 23 17 45 16
49 -1 4 2 10 7 13 4 3 15 26 25 51 19 53 134 336 148 365 5 11 30 72 55 135
25 63 50 124 55 135 5 11 28 66 51 123 23 56 43 101 45 99 2 -1 24 -54 49
-116 25 -62 51 -127 59 -145 8 -17 21 -51 31 -76 9 -25 23 -58 30 -75 21 -45
235 -571 259 -635 11 -30 24 -58 29 -61 5 -3 8 -9 7 -13 -2 -6 50 -141 85
-221 7 -16 22 -55 34 -85 23 -58 29 -73 54 -130 29 -67 69 -165 71 -175 1 -5
9 -26 18 -45 9 -19 23 -55 33 -80 16 -44 30 -76 55 -135 8 -16 14 -32 14 -35
1 -3 9 -24 18 -45 10 -22 63 -152 118 -290 56 -137 107 -263 115 -280 7 -16
32 -77 55 -135 54 -135 62 -154 61 -158 -1 -1 8 -19 19 -39 11 -21 20 -42 20
-46 0 -5 7 -23 15 -40 20 -44 155 -377 155 -382 0 -3 9 -24 19 -48 11 -23 34
-78 51 -122 18 -44 38 -94 45 -110 8 -17 18 -43 24 -58 l11 -27 590 0 590 0
-14 33 c-21 50 -38 89 -51 122 -7 17 -27 64 -45 105 -17 41 -42 100 -55 130
-13 30 -33 77 -45 105 -25 55 -43 97 -45 105 -1 3 -8 21 -17 40 -8 19 -34 80
-57 135 -23 55 -48 114 -56 130 -7 17 -38 91 -70 165 -31 74 -62 149 -69 165
-27 61 -98 227 -201 470 -58 138 -110 259 -115 270 -5 11 -27 65 -50 120 -23
55 -48 114 -55 130 -11 24 -134 315 -202 475 -8 19 -22 51 -30 70 -8 19 -19
44 -24 55 -4 11 -22 50 -38 88 -16 37 -31 71 -32 75 -1 4 -9 25 -19 47 -10 22
-35 81 -55 130 -21 50 -43 104 -51 120 -7 17 -41 95 -74 175 -34 80 -70 164
-81 187 -10 24 -19 45 -19 48 0 2 -11 28 -24 57 -13 29 -36 82 -51 118 -14 36
-33 80 -41 98 -14 32 -32 73 -58 135 -7 17 -20 48 -29 67 -64 148 -177 420
-177 427 0 5 -5 14 -12 21 -6 6 -13 17 -14 24 -1 7 -10 31 -19 53 -10 22 -19
42 -20 45 -2 7 -13 32 -94 222 -39 92 -71 172 -71 177 0 6 -4 11 -10 11 -5 0
-10 6 -10 14 0 7 -54 141 -121 297 -67 156 -126 295 -132 309 -6 14 -11 27
-12 30 -1 3 -9 23 -19 45 -27 60 -39 89 -42 100 -2 6 -34 82 -72 170 -38 88
-79 186 -92 218 -13 31 -26 57 -29 57 -4 0 -11 -12 -18 -27z"/>
</g>
</svg>
